<svg width="270" height="170" viewBox="0 0 270 170" fill="none" xmlns="http://www.w3.org/2000/svg">
<rect width="270" height="170" rx="20" fill="white"/>
<path d="M77.334 108H50.334V65.4002H58.434V103.38C58.434 104.28 58.434 105.42 59.094 106.08H63.774C70.734 106.08 74.514 103.5 77.334 97.6802V108Z" fill="black"/>
<path d="M81.9812 86.7002C81.9812 74.0402 91.4012 64.8002 104.061 64.8002C116.661 64.8002 126.081 74.0402 126.081 86.7002C126.081 99.3002 116.601 108.6 104.061 108.6C91.4612 108.6 81.9812 99.3002 81.9812 86.7002ZM92.9012 91.6202C96.7412 100.2 102.981 105.48 108.621 105.48C109.821 105.48 110.961 105.24 112.101 104.76C118.401 102 119.781 92.1602 115.161 81.7802C111.321 73.1402 105.081 67.8602 99.5012 67.8602C98.2412 67.8602 97.1012 68.1002 96.0212 68.5802C89.6012 71.4602 88.2812 81.2402 92.9012 91.6202Z" fill="black"/>
<path d="M164.133 102.24V90.8402C164.133 88.4402 162.393 87.1202 160.293 87.1202V86.2802H172.833L172.893 98.5202C172.893 106.8 160.473 108.6 154.233 108.6C140.973 108.6 131.493 100.2 131.493 86.6402C131.493 72.0602 140.493 64.7402 154.293 64.7402C163.533 64.7402 172.653 69.1202 172.953 79.2002H162.873C163.113 77.9402 163.233 76.8002 163.233 75.7202C163.233 73.4402 162.513 71.3402 161.133 69.4202C159.693 67.5602 157.053 66.6002 153.153 66.6002C143.013 66.6002 141.333 75.9602 141.333 84.4802C141.333 94.3202 145.533 105.84 157.053 105.84C159.213 105.84 164.133 105.12 164.133 102.24Z" fill="black"/>
<path d="M179.774 86.7002C179.774 74.0402 189.194 64.8002 201.854 64.8002C214.454 64.8002 223.874 74.0402 223.874 86.7002C223.874 99.3002 214.394 108.6 201.854 108.6C189.254 108.6 179.774 99.3002 179.774 86.7002ZM190.694 91.6202C194.534 100.2 200.774 105.48 206.414 105.48C207.614 105.48 208.754 105.24 209.894 104.76C216.194 102 217.574 92.1602 212.954 81.7802C209.114 73.1402 202.874 67.8602 197.294 67.8602C196.034 67.8602 194.894 68.1002 193.814 68.5802C187.394 71.4602 186.074 81.2402 190.694 91.6202Z" fill="black"/>
</svg>
