<svg width="292" height="169" viewBox="0 0 292 169" fill="none" xmlns="http://www.w3.org/2000/svg">
<path d="M25.1576 119.496L15.7594 141.788L5.37786 119.496H0V148.644H5.74161C4.84182 147.33 4.1091 145.913 3.54695 144.419C2.9848 142.913 2.54448 141.426 2.2138 139.964C1.88834 138.496 1.65861 137.13 1.53678 135.854C1.41495 134.583 1.3523 133.524 1.3523 132.675V123.803L13.2132 149.013H14.4454L24.7504 124.301V148.642H30.3719L30.0847 119.494H25.1593L25.1576 119.496Z" fill="white"/>
<path d="M43.954 119.497L33.4071 148.645H39.7683C39.4933 148.48 39.2009 148.179 38.8877 147.764C38.5692 147.336 38.3133 146.776 38.1027 146.074C37.8991 145.385 37.7964 144.561 37.7964 143.618C37.7964 142.674 37.9879 141.626 38.3708 140.477L39.5647 136.903H49.4154L54.3338 148.645H60.9056L48.5086 119.497H43.9522H43.954ZM40.0555 135.547L43.954 123.97L48.841 135.547H40.0555Z" fill="white"/>
<path d="M69.3136 119.497H63.7756V148.645H69.3136V119.497Z" fill="white"/>
<path d="M101.65 134.337C100.667 133.724 99.5776 133.245 98.3836 132.901C97.1967 132.556 96.0428 132.333 94.9185 132.223C95.8757 132.121 96.8451 131.929 97.8337 131.675C98.817 131.407 99.7151 131.024 100.519 130.526C101.33 130.016 101.993 129.365 102.51 128.567C103.034 127.782 103.288 126.806 103.288 125.657C103.288 124.233 102.874 123.11 102.037 122.293C101.201 121.463 100.18 120.85 98.9545 120.443C97.7414 120.028 96.4466 119.772 95.0821 119.664C93.7107 119.55 92.5115 119.499 91.4707 119.499H82.3145V148.64H92.0451C93.4165 148.64 94.8593 148.525 96.3961 148.276C97.9277 148.028 99.3374 147.594 100.613 146.962C101.908 146.337 102.968 145.463 103.803 144.358C104.633 143.247 105.055 141.83 105.055 140.106C105.055 138.766 104.736 137.624 104.09 136.678C103.447 135.733 102.629 134.955 101.647 134.337M87.8681 122.535C87.8681 122.26 87.8751 121.987 87.8994 121.719C87.9308 121.438 88.0595 121.195 88.2701 120.972H91.4725C92.2696 120.972 93.0162 121.08 93.7368 121.285C94.4381 121.489 95.0769 121.809 95.6181 122.25C96.1611 122.683 96.6067 123.219 96.9269 123.851C97.2593 124.476 97.4247 125.23 97.4247 126.104C97.4247 127.145 97.2263 128.012 96.8434 128.695C96.4605 129.377 95.9506 129.927 95.3049 130.335C94.6609 130.744 93.9265 131.036 93.098 131.196C92.2557 131.362 91.3872 131.445 90.4822 131.445H87.8664V122.535H87.8681ZM98.3262 143.348C98.1087 144.222 97.7449 144.95 97.2472 145.524C96.7372 146.099 96.0532 146.527 95.2057 146.788C94.3563 147.068 93.3051 147.209 92.0468 147.209H88.3136C88.0909 146.934 87.9621 146.635 87.9186 146.302C87.8803 145.977 87.8681 145.639 87.8681 145.319V132.887H90.4839C91.697 132.887 92.8004 133.014 93.8081 133.289C94.8228 133.564 95.6843 134.004 96.3978 134.61C97.1062 135.204 97.6614 135.97 98.0564 136.908C98.4463 137.834 98.6569 138.95 98.6569 140.226C98.6569 141.433 98.542 142.472 98.3245 143.348" fill="white"/>
<path d="M116.341 119.497L105.794 148.645H112.156C111.881 148.48 111.588 148.179 111.275 147.764C110.956 147.336 110.701 146.776 110.49 146.074C110.286 145.385 110.184 144.561 110.184 143.618C110.184 142.674 110.375 141.626 110.758 140.477L111.952 136.903H121.803L126.721 148.645H133.293L120.896 119.497H116.339H116.341ZM112.443 135.547L116.341 123.97L121.228 135.547H112.443Z" fill="white"/>
<path d="M161.752 132.922H148.826V119.499H143.281V148.679H148.826V134.356L161.752 134.401V148.679H167.29V119.499H161.752V132.922Z" fill="white"/>
<path d="M225.037 123.334C224.316 122.619 223.517 121.994 222.658 121.445C222.703 121.438 222.753 121.426 222.799 121.414C223.954 121.12 224.986 120.674 225.9 120.054C226.807 119.435 227.539 118.656 228.102 117.706C228.669 116.755 228.97 115.625 229.013 114.311H223.756C224.17 116.334 223.935 117.936 223.047 119.116C222.55 119.779 221.867 120.253 221.013 120.545C220.776 120.423 220.527 120.315 220.273 120.213C218.442 119.459 216.444 119.083 214.283 119.083C212.121 119.083 210.123 119.459 208.273 120.213C206.43 120.967 204.834 122.013 203.494 123.334C202.147 124.663 201.096 126.245 200.33 128.077C199.564 129.908 199.181 131.907 199.181 134.076C199.181 136.245 199.564 138.224 200.33 140.044C201.096 141.863 202.161 143.445 203.513 144.786C204.865 146.126 206.461 147.173 208.292 147.927C210.13 148.68 212.126 149.056 214.283 149.056C216.439 149.056 218.418 148.68 220.254 147.927C222.104 147.173 223.7 146.126 225.038 144.786C226.379 143.445 227.431 141.863 228.197 140.044C228.963 138.224 229.346 136.233 229.346 134.076C229.346 131.919 228.963 129.908 228.197 128.077C227.431 126.245 226.379 124.663 225.038 123.334M223.639 140.515C223.455 141.913 223.02 143.125 222.369 144.166C221.711 145.212 220.849 145.959 219.779 146.426C219.013 146.758 218.221 146.917 217.4 146.917C216.443 146.917 215.466 146.699 214.465 146.266C213.47 145.825 212.501 145.193 211.555 144.377C210.61 143.553 209.718 142.564 208.889 141.396C208.054 140.235 207.314 138.914 206.649 137.432C205.857 135.658 205.316 133.928 205.029 132.244C204.742 130.566 204.697 129.022 204.888 127.631C205.079 126.233 205.501 125.014 206.164 123.973C206.815 122.932 207.688 122.168 208.786 121.675C209.521 121.343 210.318 121.184 211.166 121.184C212.123 121.184 213.092 121.402 214.076 121.835C215.064 122.276 216.028 122.908 216.972 123.724C217.917 124.548 218.803 125.543 219.638 126.724C220.473 127.899 221.22 129.226 221.871 130.707C222.668 132.481 223.204 134.217 223.491 135.895C223.785 137.585 223.824 139.117 223.637 140.515" fill="white"/>
<path d="M254.935 122.226C255.471 123.497 255.918 124.868 256.287 126.329C256.651 127.797 256.945 129.226 257.149 130.619C257.352 132.017 257.462 133.113 257.462 133.899V141.008L238.869 119.494H233.822V148.642H239.564C239.015 147.659 238.479 146.473 237.943 145.094C237.407 143.709 236.936 142.229 236.527 140.639C236.118 139.05 235.787 137.391 235.543 135.648C235.294 133.912 235.173 132.196 235.173 130.499V124.672L257.006 148.642H258.894V119.494H253.153C253.804 120.043 254.397 120.957 254.933 122.226" fill="white"/>
<path d="M283.072 133.783V134.35C283.787 134.35 284.4 134.573 284.915 135.013C285.439 135.454 285.7 136.074 285.7 136.902V144.702C285.7 145.193 285.516 145.595 285.145 145.915C284.774 146.221 284.334 146.477 283.831 146.669C283.321 146.86 282.797 146.987 282.249 147.064C281.706 147.134 281.241 147.167 280.858 147.167C278.886 147.167 277.216 146.719 275.849 145.833C274.478 144.945 273.38 143.798 272.525 142.386C271.676 140.976 271.058 139.394 270.675 137.663C270.292 135.927 270.101 134.223 270.101 132.552C270.101 131.11 270.197 129.641 270.388 128.18C270.58 126.718 270.962 125.403 271.544 124.235C272.118 123.074 272.934 122.129 273.999 121.408C275.072 120.68 276.462 120.323 278.192 120.323C280.846 120.323 282.748 121.089 283.915 122.641C285.075 124.185 285.382 126.284 284.84 128.939H291.731C291.68 127.216 291.283 125.729 290.544 124.484C289.804 123.24 288.84 122.212 287.648 121.408C286.461 120.597 285.101 120.003 283.577 119.622C282.064 119.239 280.528 119.047 278.97 119.047C276.615 119.047 274.471 119.366 272.551 119.993C270.618 120.618 268.978 121.556 267.619 122.801C266.267 124.046 265.221 125.609 264.479 127.486C263.745 129.355 263.369 131.538 263.369 134.033C263.369 136.356 263.752 138.438 264.525 140.288C265.29 142.139 266.363 143.716 267.746 145.011C269.125 146.314 270.764 147.31 272.665 148.011C274.565 148.707 276.652 149.057 278.93 149.057C279.638 149.057 280.442 149.012 281.354 148.936C282.247 148.852 283.173 148.713 284.116 148.521C285.061 148.33 285.993 148.069 286.905 147.743C287.823 147.41 288.64 146.989 289.348 146.472C290.063 145.948 290.631 145.33 291.052 144.622C291.48 143.913 291.691 143.09 291.691 142.158L291.645 133.784H283.07L283.072 133.783Z" fill="white"/>
<path d="M201.033 114.307H195.775C195.998 115.368 195.998 116.247 195.89 116.969C195.679 118.432 194.404 119.497 192.923 119.497H189.235C191.308 122.279 192.023 124.896 192.776 128.12C193.561 131.522 193.523 134.866 193.523 138.172C193.523 139.41 193.351 140.547 193.006 141.586C192.662 142.627 192.152 143.532 191.468 144.31C190.785 145.096 189.948 145.701 188.967 146.142C187.978 146.575 186.842 146.786 185.559 146.786C184.276 146.786 183.089 146.525 182.17 145.975C181.258 145.426 180.519 144.704 179.957 143.818C179.394 142.93 178.987 141.917 178.744 140.78C178.495 139.638 178.373 138.501 178.373 137.352V119.495H172.835V138.463C172.835 140.129 173.153 141.616 173.799 142.937C174.438 144.251 175.311 145.355 176.408 146.262C177.499 147.162 178.756 147.857 180.179 148.335C181.603 148.814 183.108 149.051 184.703 149.051C186.297 149.051 187.797 148.809 189.087 148.316C190.369 147.818 191.461 147.117 192.347 146.198C193.234 145.285 193.923 144.168 194.4 142.853C194.879 141.539 195.116 140.077 195.116 138.463V121.32C196.156 121.033 197.087 120.611 197.916 120.049C198.823 119.436 199.555 118.651 200.123 117.7C200.685 116.75 200.984 115.62 201.029 114.306" fill="white"/>
<path d="M126.006 112.977H120.147L117.124 117.502H120.525L126.006 112.977Z" fill="white"/>
<path d="M46.8049 158.746H45.2472L42.1719 162.179V158.746H40.8527V165.823H42.1719V163.678L43.244 162.491L45.3568 165.823H46.8814L44.1942 161.636L46.8049 158.746Z" fill="#C1A880"/>
<path d="M49.4955 162.776H52.5517V161.723H49.4955V159.848H53.3993V158.743H48.1746V165.821H53.5472V164.73H49.4955V162.776Z" fill="#C1A880"/>
<path d="M50.7922 156.751L51.6276 157.855H52.6561L51.4553 156.029H50.1291L48.9299 157.855H49.9568L50.7922 156.751Z" fill="#C1A880"/>
<path d="M52.235 156.84H53.1156L53.965 155.274H52.8424L52.235 156.84Z" fill="#C1A880"/>
<path d="M57.6755 159.839H60.0669V165.824H61.3826V159.839H63.7739V158.748H57.6755V159.839Z" fill="#C1A880"/>
<path d="M69.7991 161.693H66.4941V158.746H65.1801V165.823H66.4941V162.785H69.7991V165.823H71.1201V158.746H69.7991V161.693Z" fill="#C1A880"/>
<path d="M80.1337 157.597H79.1069C79.1069 157.973 79.0233 158.26 78.8702 158.452C78.7101 158.65 78.4299 158.739 78.0348 158.739H77.6589V162.971C77.6589 163.591 77.5248 164.063 77.2568 164.369C76.9888 164.676 76.5746 164.822 76.0194 164.822C75.4642 164.822 75.05 164.676 74.782 164.369C74.5139 164.063 74.3799 163.591 74.3799 162.971V158.739H73.059V163.067C73.059 164.018 73.3148 164.733 73.8247 165.212C74.3155 165.691 75.057 165.933 76.0194 165.933C76.9818 165.933 77.7041 165.691 78.2071 165.212C78.7118 164.733 78.9659 164.018 78.9659 163.067V159.462C79.227 159.378 79.4515 159.244 79.629 159.06C79.9666 158.715 80.1337 158.229 80.1337 157.597Z" fill="#C1A880"/>
<path d="M76.6179 158.156L75.9409 156.42H74.6965L75.6416 158.156H76.6179Z" fill="#C1A880"/>
<path d="M82.4622 158.743L79.8342 165.814H81.1743L81.7992 164.028H84.6569L85.2765 165.814H86.6549L84.0391 158.743H82.464H82.4622ZM82.1559 163.013L82.9095 160.856L83.2228 159.841H83.235L83.5674 160.887L84.3019 163.013H82.1577H82.1559Z" fill="#C1A880"/>
<path d="M93.6827 158.752H91.0669V165.824H93.6827C94.7931 165.824 95.6546 165.517 96.2672 164.897C96.8799 164.285 97.1931 163.411 97.1931 162.281C97.1931 161.151 96.8799 160.27 96.2672 159.664C95.6546 159.051 94.7931 158.752 93.6827 158.752ZM95.2648 164.107C94.8941 164.535 94.3528 164.751 93.6375 164.751H92.3861V159.817H93.6375C94.3528 159.817 94.8941 160.028 95.2648 160.462C95.6355 160.89 95.8199 161.496 95.8199 162.281C95.8199 163.066 95.6355 163.679 95.2648 164.105" fill="#C1A880"/>
<path d="M100.214 158.745H98.8934V165.823H100.214V158.745Z" fill="#C1A880"/>
<path d="M107.416 159.861C107.627 159.777 107.895 159.739 108.22 159.739C108.68 159.739 109.07 159.823 109.419 159.995C109.764 160.174 110.077 160.461 110.345 160.857L111.156 160.002C110.831 159.549 110.429 159.21 109.95 158.98C109.479 158.75 108.916 158.635 108.272 158.635C107.691 158.635 107.181 158.738 106.76 158.935C106.339 159.133 106.006 159.394 105.784 159.72C105.554 160.045 105.446 160.421 105.446 160.838C105.446 161.163 105.516 161.45 105.664 161.706C105.81 161.955 106.027 162.166 106.321 162.331C106.609 162.504 106.96 162.631 107.374 162.726L108.88 163.059C109.237 163.142 109.48 163.257 109.614 163.404C109.741 163.55 109.813 163.722 109.813 163.914C109.813 164.105 109.748 164.278 109.633 164.412C109.519 164.553 109.346 164.661 109.129 164.73C108.911 164.8 108.65 164.833 108.337 164.833C107.973 164.833 107.641 164.788 107.334 164.68C107.04 164.577 106.76 164.431 106.53 164.246C106.281 164.062 106.09 163.844 105.937 163.602L105.114 164.509C105.317 164.77 105.58 165.019 105.892 165.237C106.198 165.447 106.555 165.62 106.964 165.747C107.366 165.869 107.818 165.931 108.316 165.931C108.878 165.931 109.376 165.843 109.802 165.663C110.217 165.491 110.561 165.242 110.791 164.916C111.04 164.591 111.155 164.208 111.155 163.748C111.155 163.289 111.008 162.874 110.721 162.561C110.427 162.255 109.929 162.025 109.24 161.879L107.855 161.565C107.46 161.476 107.192 161.355 107.039 161.194C106.892 161.053 106.816 160.876 106.816 160.677C106.816 160.493 106.861 160.34 106.962 160.199C107.058 160.058 107.204 159.943 107.414 159.861" fill="#C1A880"/>
<path d="M114.526 158.743L111.898 165.814H113.238L113.863 164.028H116.721L117.34 165.814H118.718L116.103 158.743H114.528H114.526ZM114.22 163.013L114.973 160.856L115.286 159.841H115.299L115.631 160.887L116.365 163.013H114.221H114.22Z" fill="#C1A880"/>
<path d="M114.867 156.88C114.936 156.83 115.027 156.804 115.116 156.804C115.257 156.804 115.352 156.842 115.422 156.911C115.486 156.981 115.518 157.065 115.518 157.167C115.518 157.308 115.479 157.423 115.391 157.512C115.302 157.608 115.154 157.704 114.963 157.799L115.307 158.233C115.506 158.168 115.69 158.08 115.855 157.972C116.009 157.857 116.15 157.723 116.238 157.557C116.327 157.385 116.379 157.213 116.379 157.002C116.379 156.804 116.329 156.631 116.233 156.473C116.137 156.327 116.003 156.212 115.831 156.128C115.659 156.044 115.474 156.001 115.264 156.001C114.957 156.001 114.696 156.065 114.479 156.192C114.268 156.327 114.115 156.506 114.019 156.741L114.682 157.117C114.733 157.002 114.797 156.932 114.867 156.88Z" fill="#C1A880"/>
<path d="M124.718 163.078L124.763 164.265H124.751L124.1 163.044L121.503 158.743H119.977V165.814H121.171V161.488L121.125 160.308H121.139L121.79 161.514L124.406 165.814H125.918V158.743H124.718V163.078Z" fill="#C1A880"/>
<path d="M135.137 162.402H131.418V163.57H135.137V162.402Z" fill="#C1A880"/>
<path d="M146.588 158.746H145.03L141.955 162.179V158.746H140.634V165.823H141.955V163.678L143.027 162.491L145.14 165.823H146.664L143.977 161.636L146.588 158.746Z" fill="#C1A880"/>
<path d="M149.28 158.745H147.959V165.823H149.28V158.745Z" fill="#C1A880"/>
<path d="M153.962 156.751L154.799 157.855H155.826L154.627 156.029H153.299L152.099 157.855H153.126L153.962 156.751Z" fill="#C1A880"/>
<path d="M155.406 156.84H156.285L157.135 155.274H156.012L155.406 156.84Z" fill="#C1A880"/>
<path d="M152.665 162.776H155.721V161.723H152.665V159.848H156.571V158.743H151.344V165.821H156.717V164.73H152.665V162.776Z" fill="#C1A880"/>
<path d="M163 163.078L163.043 164.265H163.031L162.38 163.044L159.784 158.743H158.259V165.814H159.451V161.488L159.408 160.308H159.42L160.071 161.514L162.687 165.814H164.199V158.743H163V163.078Z" fill="#C1A880"/>
<path d="M174.951 158.746H168.851V159.836H171.244V165.823H172.558V159.836H174.951V158.746Z" fill="#C1A880"/>
<path d="M177.242 158.743L174.614 165.814H175.954L176.578 164.028H179.436L180.056 165.814H181.434L178.818 158.743H177.243H177.242ZM176.935 163.013L177.689 160.856L178.002 159.841H178.014L178.347 160.887L179.081 163.013H176.937H176.935Z" fill="#C1A880"/>
<path d="M178.02 166.68C177.771 166.68 177.579 166.737 177.433 166.878C177.287 167.012 177.215 167.185 177.215 167.421C177.215 167.658 177.285 167.843 177.433 167.977C177.579 168.104 177.771 168.175 178.02 168.175C178.268 168.175 178.472 168.106 178.613 167.977C178.754 167.843 178.824 167.658 178.824 167.421C178.824 167.185 178.754 167.012 178.613 166.878C178.472 166.737 178.268 166.68 178.02 166.68Z" fill="#C1A880"/>
<path d="M187.24 159.079C186.742 158.784 186.137 158.638 185.441 158.638C184.744 158.638 184.158 158.784 183.655 159.079C183.15 159.373 182.762 159.787 182.494 160.336C182.214 160.879 182.073 161.523 182.073 162.282C182.073 163.041 182.214 163.692 182.494 164.235C182.762 164.778 183.152 165.193 183.655 165.492C184.16 165.786 184.753 165.933 185.441 165.933C186.128 165.933 186.742 165.786 187.24 165.492C187.738 165.193 188.128 164.777 188.401 164.235C188.681 163.692 188.815 163.041 188.815 162.282C188.815 161.523 188.681 160.877 188.401 160.336C188.126 159.787 187.738 159.371 187.24 159.079ZM187.207 163.666C187.047 164.042 186.831 164.329 186.525 164.528C186.231 164.726 185.874 164.822 185.441 164.822C185.007 164.822 184.668 164.726 184.368 164.528C184.069 164.329 183.839 164.042 183.672 163.666C183.512 163.29 183.436 162.823 183.436 162.28C183.436 161.737 183.512 161.277 183.672 160.901C183.838 160.518 184.067 160.231 184.368 160.033C184.668 159.841 185.026 159.738 185.441 159.738C185.855 159.738 186.232 159.841 186.525 160.033C186.831 160.231 187.049 160.518 187.207 160.901C187.367 161.277 187.444 161.737 187.444 162.28C187.444 162.823 187.367 163.288 187.207 163.666Z" fill="#C1A880"/>
<path d="M193.104 159.839H195.495V165.824H196.811V159.839H199.202V158.748H193.104V159.839Z" fill="#C1A880"/>
<path d="M206.278 158.455C206.118 158.639 205.845 158.742 205.443 158.742H205.072V162.967C205.072 163.599 204.931 164.066 204.663 164.372C204.395 164.672 203.986 164.825 203.426 164.825C202.865 164.825 202.456 164.672 202.188 164.372C201.92 164.066 201.786 163.599 201.786 162.967V158.742H200.465V163.063C200.465 164.013 200.721 164.734 201.224 165.213C201.729 165.692 202.462 165.928 203.426 165.928C204.39 165.928 205.116 165.692 205.621 165.213C206.125 164.734 206.374 164.013 206.374 163.063V159.463C206.635 159.374 206.86 159.245 207.037 159.061C207.375 158.716 207.542 158.225 207.542 157.598H206.515C206.515 157.974 206.439 158.268 206.278 158.453" fill="#C1A880"/>
<path d="M213.482 159.347C213.642 159.27 213.781 159.181 213.896 159.06C214.248 158.715 214.425 158.229 214.425 157.597H213.384C213.384 157.973 213.308 158.26 213.143 158.452C212.977 158.643 212.676 158.732 212.25 158.739C211.956 158.675 211.644 158.636 211.305 158.636C210.615 158.636 210.022 158.783 209.519 159.077C209.014 159.371 208.626 159.786 208.358 160.334C208.078 160.877 207.937 161.521 207.937 162.28C207.937 163.039 208.078 163.69 208.358 164.234C208.626 164.777 209.016 165.191 209.519 165.491C210.024 165.785 210.617 165.931 211.305 165.931C211.992 165.931 212.607 165.785 213.104 165.491C213.602 165.191 213.992 164.775 214.265 164.234C214.545 163.69 214.679 163.039 214.679 162.28C214.679 161.521 214.545 160.875 214.265 160.334C214.067 159.932 213.806 159.606 213.48 159.345M213.073 163.666C212.913 164.042 212.697 164.329 212.391 164.528C212.097 164.726 211.74 164.822 211.306 164.822C210.873 164.822 210.534 164.726 210.234 164.528C209.935 164.329 209.705 164.042 209.538 163.666C209.378 163.29 209.301 162.823 209.301 162.28C209.301 161.737 209.378 161.277 209.538 160.901C209.704 160.518 209.933 160.231 210.234 160.033C210.534 159.841 210.892 159.739 211.306 159.739C211.721 159.739 212.098 159.841 212.391 160.033C212.697 160.231 212.915 160.518 213.073 160.901C213.233 161.277 213.31 161.737 213.31 162.28C213.31 162.823 213.233 163.288 213.073 163.666Z" fill="#C1A880"/>
<path d="M221.126 163.078L221.169 164.265H221.157L220.506 163.044L217.91 158.743H216.385V165.814H217.577V161.488L217.534 160.308H217.546L218.197 161.514L220.813 165.814H222.325V158.743H221.126V163.078Z" fill="#C1A880"/>
<path d="M227.32 163.142H229.273V163.327C229.273 163.583 229.227 163.806 229.139 163.997C229.05 164.182 228.921 164.342 228.756 164.469C228.59 164.591 228.399 164.687 228.188 164.749C227.971 164.814 227.741 164.845 227.492 164.845C227.033 164.845 226.643 164.749 226.331 164.551C226.013 164.347 225.769 164.065 225.616 163.682C225.456 163.299 225.379 162.833 225.379 162.284C225.379 161.736 225.475 161.295 225.64 160.912C225.813 160.529 226.062 160.23 226.368 160.038C226.681 159.84 227.045 159.739 227.471 159.739C227.898 159.739 228.249 159.835 228.543 160.026C228.838 160.218 229.048 160.505 229.175 160.888L230.388 160.34C230.113 159.765 229.737 159.325 229.285 159.05C228.818 158.775 228.206 158.635 227.461 158.635C226.772 158.635 226.178 158.781 225.656 159.076C225.132 159.37 224.73 159.791 224.457 160.34C224.163 160.883 224.017 161.534 224.017 162.293C224.017 163.052 224.158 163.71 224.426 164.251C224.701 164.795 225.083 165.209 225.567 165.496C226.058 165.783 226.627 165.93 227.276 165.93C227.889 165.93 228.387 165.803 228.782 165.547C229.038 165.381 229.248 165.164 229.414 164.903L229.464 165.815H230.421V162.133H227.32V163.141V163.142Z" fill="#C1A880"/>
<path d="M237.063 158.746H235.742V165.823H240.873V164.731H237.063V158.746Z" fill="#C1A880"/>
<path d="M244.101 158.743L241.473 165.814H242.813L243.438 164.028H246.296L246.915 165.814H248.294L245.678 158.743H244.103H244.101ZM243.795 163.013L244.548 160.856L244.862 159.841H244.874L245.206 160.887L245.941 163.013H243.796H243.795Z" fill="#C1A880"/>
<path d="M250.876 158.745H249.555V165.823H250.876V158.745Z" fill="#C1A880"/>
<path d="M162.394 2.78896C160.422 2.09259 158.388 1.52505 156.32 1.09156C154.023 0.600619 151.675 0.275066 149.277 0.107937C148.154 0.0313366 147.012 0 145.869 0C144.725 0 143.579 0.0313366 142.461 0.107937C140.063 0.273325 137.708 0.598878 135.411 1.09156C133.343 1.52505 131.321 2.09433 129.349 2.78896C109.787 9.61164 95.7626 28.2291 95.7626 50.1125C95.7626 71.9959 109.806 90.6464 129.373 97.4551C134.541 99.2553 140.086 100.232 145.867 100.232C151.649 100.232 157.185 99.2553 162.354 97.4551C181.923 90.6447 195.972 72.015 195.972 50.1125C195.972 28.2099 181.942 9.61164 162.392 2.78896M162.394 17.8375V5.68063C168.028 8.35469 171.57 14.105 171.57 20.3409V29.244C171.136 35.0518 168.813 40.8717 164.756 45.0725C163.99 45.8507 163.174 46.5923 162.358 47.3061C162.358 47.3061 162.396 18.3563 162.396 17.8392M145.704 1.89587H146.029C151.739 1.9272 156.32 6.60506 156.32 12.3118L156.289 49.5014C156.282 51.2824 155.593 52.9867 154.369 54.275C151.906 56.8533 147.733 61.4877 145.871 65.0043C144.001 61.4877 139.828 56.8551 137.365 54.275C136.14 52.985 135.451 51.2824 135.446 49.5014L135.414 12.3118C135.414 6.6068 140.002 1.9272 145.705 1.89587M120.163 20.3392C120.163 14.1032 123.705 8.35295 129.351 5.67889V17.8375C129.351 18.3546 129.377 47.3044 129.377 47.3044C128.561 46.5889 127.75 45.849 126.984 45.0708C122.92 40.8717 120.61 35.05 120.163 29.2423V20.3392ZM114.096 82.1455C107.314 73.5105 103.224 62.0866 103.333 49.6024H103.34C104.757 52.5254 107.347 54.8739 109.273 57.3512C112.145 60.8226 113.715 64.6527 114.096 69.005V82.1455ZM171.57 71.9019V79.8927C171.57 86.0956 168.073 91.8146 162.485 94.5078C162.434 94.52 162.396 94.553 162.358 94.5652V56.4129C161.898 56.8464 161.451 57.2816 161.01 57.7081L160.972 57.7395C159.129 59.4752 157.571 61.2248 156.284 63.011V87.9271C156.284 93.6269 151.703 98.3169 146.005 98.3361H145.73C140.032 98.3169 135.451 93.6269 135.451 87.9271V63.011C134.161 61.2248 132.605 59.4752 130.762 57.7395L130.724 57.7081C130.284 57.2799 129.836 56.8464 129.377 56.4129V94.5652C129.346 94.553 129.3 94.52 129.255 94.5078C123.667 91.8146 120.163 86.0956 120.163 79.8927V71.9019C119.799 67.2501 118.459 62.4051 115.736 58.5316C115.231 57.7847 114.683 57.0831 114.096 56.4129C111.966 53.9617 109.413 51.9387 107.206 49.6163C104.698 47.038 103.697 43.1958 104.341 39.6861C104.341 39.6478 104.341 39.6165 104.353 39.5903C105.961 31.4655 109.374 24.1013 114.096 18.0952V52.9676C114.709 53.5734 115.309 54.2002 115.882 54.8635C116.552 55.6295 117.145 56.3955 117.681 57.1998C118.703 58.6482 119.519 60.1802 120.163 61.7053V41.8187C120.577 42.6927 121.037 43.5544 121.548 44.397C123.559 47.7605 126.5 50.5233 129.377 53.1922C130.404 54.1427 131.411 55.0811 132.376 56.0264C133.474 57.0535 134.501 58.119 135.451 59.2175C139.158 63.5193 141.678 68.4078 142.425 74.3044C142.705 76.296 142.815 78.3381 142.781 80.3924L142.762 89.1614C142.762 89.8316 142.954 90.4514 143.286 90.9737C144.461 92.8243 147.28 92.8243 148.448 90.9737C148.781 90.4497 148.972 89.8316 148.972 89.1614L148.953 80.3924C148.922 78.3381 149.03 76.2942 149.317 74.3044C150.056 68.4078 152.576 63.5193 156.284 59.2175C157.241 58.119 158.261 57.0535 159.359 56.0264C160.323 55.0811 161.336 54.1445 162.358 53.1922C165.234 50.5251 168.176 47.7605 170.193 44.397C170.698 43.5544 171.157 42.6927 171.571 41.8187V61.7053C172.222 60.1802 173.033 58.6482 174.06 57.1998C174.589 56.3955 175.183 55.6295 175.86 54.8635C176.441 54.2002 177.034 53.5734 177.64 52.9676V18.0934C182.355 24.0996 185.775 31.4637 187.383 39.5886C187.395 39.6147 187.395 39.646 187.395 39.6843C188.034 43.194 187.038 47.0363 184.537 49.6146C182.324 51.937 179.772 53.9617 177.64 56.4111C177.054 57.0814 176.504 57.783 176.001 58.5298C173.277 62.4034 171.937 67.2484 171.573 71.9001M177.637 82.1455V69.005C178.013 64.6527 179.589 60.8226 182.459 57.3512C184.386 54.8756 186.983 52.5271 188.392 49.6024H188.399C188.514 62.0866 184.417 73.5105 177.637 82.1455Z" fill="#C1A880"/>
</svg>
