<svg width="35" height="35" viewBox="0 0 35 35" fill="none" xmlns="http://www.w3.org/2000/svg">
<rect width="34.1724" height="34.1724" rx="17.0862" fill="white"/>
<mask id="path-2-inside-1_26_235" fill="white">
<path d="M18.5416 25.0599V17.4393H21.0995L21.4825 14.4694H18.5416V12.5732C18.5416 11.7134 18.7804 11.1274 20.0135 11.1274L21.5862 11.1266V8.47041C21.314 8.43435 20.3806 8.35352 19.2945 8.35352C17.0271 8.35352 15.4747 9.7375 15.4747 12.2792V14.4695H12.9102V17.4394H15.4746V25.06L18.5416 25.0599Z"/>
</mask>
<path d="M18.5416 25.0599V17.4393H21.0995L21.4825 14.4694H18.5416V12.5732C18.5416 11.7134 18.7804 11.1274 20.0135 11.1274L21.5862 11.1266V8.47041C21.314 8.43435 20.3806 8.35352 19.2945 8.35352C17.0271 8.35352 15.4747 9.7375 15.4747 12.2792V14.4695H12.9102V17.4394H15.4746V25.06L18.5416 25.0599Z" fill="#004C40"/>
<path d="M18.5416 25.0599L18.5419 37.1295L30.6112 37.1292V25.0599H18.5416ZM18.5416 17.4393V5.36971H6.47198V17.4393H18.5416ZM21.0995 17.4393V29.5089H31.7127L33.07 18.9829L21.0995 17.4393ZM21.4825 14.4694L33.453 16.013L35.2084 2.39982H21.4825V14.4694ZM18.5416 14.4694H6.47198V26.539H18.5416V14.4694ZM20.0135 11.1274V23.197L20.0191 23.197L20.0135 11.1274ZM21.5862 11.1266L21.5917 23.1962L33.6558 23.1907V11.1266H21.5862ZM21.5862 8.47041H33.6558V-2.1052L23.1718 -3.49457L21.5862 8.47041ZM15.4747 14.4695V26.5391H27.5443V14.4695H15.4747ZM12.9102 14.4695V2.3999H0.840566V14.4695H12.9102ZM12.9102 17.4394H0.840566V29.509H12.9102V17.4394ZM15.4746 17.4394H27.5442V5.36979H15.4746V17.4394ZM15.4746 25.06H3.40506V37.1299L15.475 37.1296L15.4746 25.06ZM18.5416 25.0599H30.6112V17.4393H18.5416H6.47198V25.0599H18.5416ZM18.5416 17.4393V29.5089H21.0995V17.4393V5.36971H18.5416V17.4393ZM21.0995 17.4393L33.07 18.9829L33.453 16.013L21.4825 14.4694L9.51201 12.9258L9.12905 15.8957L21.0995 17.4393ZM21.4825 14.4694V2.39982H18.5416V14.4694V26.539H21.4825V14.4694ZM18.5416 14.4694H30.6112V12.5732H18.5416H6.47198V14.4694H18.5416ZM18.5416 12.5732H30.6112C30.6112 12.6601 30.7498 16.0924 28.0481 19.3014C24.9543 22.9759 21.0052 23.197 20.0135 23.197V11.1274V-0.942225C17.7886 -0.942225 13.1036 -0.428197 9.58217 3.75433C6.45277 7.47125 6.47198 11.6265 6.47198 12.5732H18.5416ZM20.0135 11.1274L20.0191 23.197L21.5917 23.1962L21.5862 11.1266L21.5806 -0.942949L20.0079 -0.942223L20.0135 11.1274ZM21.5862 11.1266H33.6558V8.47041H21.5862H9.51657V11.1266H21.5862ZM21.5862 8.47041L23.1718 -3.49457C22.3024 -3.60979 20.8333 -3.71607 19.2945 -3.71607V8.35352V20.4231C19.55 20.4231 19.8049 20.433 20.007 20.4454C20.1048 20.4514 20.1719 20.4569 20.2007 20.4594C20.2148 20.4607 20.2104 20.4604 20.1884 20.4581C20.1742 20.4566 20.1058 20.4493 20.0005 20.4354L21.5862 8.47041ZM19.2945 8.35352V-3.71607C15.7114 -3.71607 11.45 -2.58166 8.04986 0.779009C4.61234 4.17658 3.40514 8.51312 3.40514 12.2792H15.4747H27.5443C27.5443 13.5036 27.1133 15.8773 25.0188 17.9474C22.9617 19.9807 20.6101 20.4231 19.2945 20.4231V8.35352ZM15.4747 12.2792H3.40514V14.4695H15.4747H27.5443V12.2792H15.4747ZM15.4747 14.4695V2.3999H12.9102V14.4695V26.5391H15.4747V14.4695ZM12.9102 14.4695H0.840566V17.4394H12.9102H24.9797V14.4695H12.9102ZM12.9102 17.4394V29.509H15.4746V17.4394V5.36979H12.9102V17.4394ZM15.4746 17.4394H3.40506V25.06H15.4746H27.5442V17.4394H15.4746ZM15.4746 25.06L15.475 37.1296L18.5419 37.1295L18.5416 25.0599L18.5413 12.9904L15.4743 12.9904L15.4746 25.06Z" fill="#004C40" mask="url(#path-2-inside-1_26_235)"/>
</svg>
