<svg width="20" height="20" viewBox="0 0 20 20" fill="none" xmlns="http://www.w3.org/2000/svg">
<path d="M5.84243 14.2615C6.25437 14.2181 6.55313 13.849 6.50973 13.437C6.46633 13.0251 6.09721 12.7264 5.68528 12.7698L5.76386 13.5156L5.84243 14.2615ZM1.58112 14.8306L1.21875 14.174C1.20094 14.1838 1.18354 14.1944 1.16659 14.2056L1.58112 14.8306ZM1.02067 16.6585L0.440418 17.1337C0.465651 17.1645 0.493298 17.1933 0.523097 17.2197L1.02067 16.6585ZM4.33062 18.1895L4.49702 17.4582C4.47687 17.4536 4.45653 17.4499 4.43606 17.447L4.33062 18.1895ZM9.74864 18.7461L9.76306 17.9963C9.75351 17.9961 9.74395 17.9961 9.7344 17.9962L9.74864 18.7461ZM15.1667 18.1908L15.0612 17.4482C15.0408 17.4511 15.0205 17.4549 15.0004 17.4595L15.1667 18.1908ZM18.4766 16.6598L18.9742 17.221C19.004 17.1946 19.0316 17.1658 19.0569 17.135L18.4766 16.6598ZM17.9162 14.8319L18.3307 14.2069C18.3138 14.1957 18.2965 14.1852 18.2787 14.1754L17.9162 14.8319ZM13.8122 12.7698C13.4003 12.7263 13.0311 13.0249 12.9876 13.4369C12.9441 13.8488 13.2427 14.218 13.6547 14.2615L13.7334 13.5156L13.8122 12.7698ZM9.74922 13.125L9.2329 13.669C9.52231 13.9437 9.97614 13.9437 10.2656 13.669L9.74922 13.125ZM5.93154 9.50137L6.4479 8.95736L6.44169 8.95159L5.93154 9.50137ZM5.93154 2.25144L6.44169 2.80121L6.44244 2.80051L5.93154 2.25144ZM13.5669 2.25144L13.056 2.80051L13.0568 2.80121L13.5669 2.25144ZM13.5669 9.50137L13.0567 8.95156L13.0506 8.9574L13.5669 9.50137ZM9.74811 7.81951L9.73502 8.56943L9.74158 8.56948L9.74811 7.81951ZM8.01035 6.02967L8.7603 6.03872L8.01035 6.02967ZM9.79078 4.28227L9.79579 3.53228L9.79078 4.28227ZM11.5477 6.05331L12.2977 6.06084L12.2977 6.05428L11.5477 6.05331ZM5.76386 13.5156L5.68528 12.7698C4.11761 12.9349 2.5989 13.4124 1.21875 14.174L1.58112 14.8306L1.94348 15.4873C3.14825 14.8225 4.47398 14.4057 5.84243 14.2615L5.76386 13.5156ZM1.58112 14.8306L1.16659 14.2056C0.668038 14.5362 0.240424 14.9639 0.0728974 15.5103C-0.110543 16.1085 0.0669079 16.6776 0.440418 17.1337L1.02067 16.6585L1.60093 16.1834C1.53176 16.0989 1.51068 16.0426 1.50421 16.0163C1.49894 15.9949 1.49866 15.9772 1.50699 15.95C1.52906 15.878 1.63168 15.6971 1.99564 15.4557L1.58112 14.8306ZM1.02067 16.6585L0.523097 17.2197C1.56245 18.1413 2.84991 18.7368 4.22518 18.9321L4.33062 18.1895L4.43606 17.447C3.35214 17.293 2.33743 16.8237 1.51825 16.0974L1.02067 16.6585ZM4.33062 18.1895L4.16421 18.9208C6.00025 19.3386 7.88025 19.5317 9.76289 19.496L9.74864 18.7461L9.7344 17.9962C7.97326 18.0297 6.21458 17.849 4.49702 17.4582L4.33062 18.1895ZM9.74864 18.7461L9.73423 19.496C11.6168 19.5322 13.4968 19.3395 15.3329 18.9221L15.1667 18.1908L15.0004 17.4595C13.2828 17.8499 11.5241 18.0301 9.76306 17.9963L9.74864 18.7461ZM15.1667 18.1908L15.2721 18.9334C16.6474 18.7381 17.9348 18.1426 18.9742 17.221L18.4766 16.6598L17.979 16.0987C17.1599 16.825 16.1451 17.2943 15.0612 17.4482L15.1667 18.1908ZM18.4766 16.6598L19.0569 17.135C19.4304 16.6789 19.6078 16.1098 19.4244 15.5115C19.2569 14.9652 18.8292 14.5375 18.3307 14.2069L17.9162 14.8319L17.5016 15.457C17.8656 15.6983 17.9682 15.8793 17.9903 15.9513C17.9986 15.9784 17.9983 15.9962 17.9931 16.0176C17.9866 16.0438 17.9655 16.1002 17.8964 16.1846L18.4766 16.6598ZM17.9162 14.8319L18.2787 14.1754C16.8987 13.4133 15.38 12.9354 13.8122 12.7698L13.7334 13.5156L13.6547 14.2615C15.0232 14.406 16.3489 14.8232 17.5536 15.4885L17.9162 14.8319ZM9.74922 13.125L10.2656 12.5811L6.44787 8.9574L5.93154 9.50137L5.41521 10.0453L9.2329 13.669L9.74922 13.125ZM5.93154 9.50137L6.44169 8.95159C5.58621 8.15778 5.10007 7.04347 5.10007 5.8764H4.35007H3.60007C3.60007 7.46074 4.26003 8.97348 5.42139 10.0511L5.93154 9.50137ZM4.35007 5.8764H5.10007C5.10007 4.70934 5.58621 3.59503 6.44169 2.80121L5.93154 2.25144L5.42139 1.70166C4.26003 2.77932 3.60007 4.29206 3.60007 5.8764H4.35007ZM5.93154 2.25144L6.44244 2.80051C8.306 1.0665 11.1924 1.0665 13.056 2.80051L13.5669 2.25144L14.0778 1.70237C11.6384 -0.567455 7.86004 -0.567455 5.42064 1.70237L5.93154 2.25144ZM13.5669 2.25144L13.0568 2.80121C13.9122 3.59503 14.3984 4.70934 14.3984 5.8764H15.1484H15.8984C15.8984 4.29206 15.2384 2.77932 14.0771 1.70166L13.5669 2.25144ZM15.1484 5.8764H14.3984C14.3984 7.04347 13.9122 8.15778 13.0568 8.95159L13.5669 9.50137L14.0771 10.0511C15.2384 8.97348 15.8984 7.46074 15.8984 5.8764H15.1484ZM13.5669 9.50137L13.0506 8.9574L9.2329 12.5811L9.74922 13.125L10.2656 13.669L14.0832 10.0453L13.5669 9.50137ZM9.74811 7.81951L9.76119 7.06963C9.2008 7.05985 8.75354 6.59921 8.7603 6.03872L8.01035 6.02967L7.26041 6.02062C7.24369 7.4063 8.34945 8.54523 9.73502 8.5694L9.74811 7.81951ZM8.01035 6.02967L8.7603 6.03872C8.76706 5.47822 9.2253 5.0285 9.78576 5.03225L9.79078 4.28227L9.79579 3.53228C8.41003 3.52302 7.27712 4.63495 7.26041 6.02062L8.01035 6.02967ZM9.79078 4.28227L9.78576 5.03225C10.3462 5.036 10.7984 5.4918 10.7977 6.05233L11.5477 6.05331L12.2977 6.05428C12.2995 4.66851 11.1815 3.54154 9.79579 3.53228L9.79078 4.28227ZM11.5477 6.05331L10.7977 6.04577C10.792 6.61639 10.3252 7.0745 9.75463 7.06954L9.74811 7.81951L9.74158 8.56948C11.1398 8.58164 12.2836 7.45902 12.2976 6.06084L11.5477 6.05331Z" fill="white"/>
</svg>
