<svg width="35" height="35" viewBox="0 0 35 35" fill="none" xmlns="http://www.w3.org/2000/svg">
<rect width="34.1724" height="34.1724" rx="17.0862" fill="white"/>
<path d="M17.0869 11.3906C17.1436 11.3906 22.5518 11.3923 23.9102 11.7529C24.281 11.8528 24.6187 12.0472 24.8896 12.3164C25.1606 12.5857 25.3554 12.9212 25.4541 13.2881C25.8192 14.6424 25.8193 17.4658 25.8193 17.4658C25.8193 17.4851 25.818 20.294 25.4541 21.6436C25.3554 22.0104 25.1606 22.3459 24.8896 22.6152C24.6187 22.8844 24.281 23.0789 23.9102 23.1787C22.5517 23.5393 17.1436 23.541 17.0869 23.541C17.0869 23.541 11.6282 23.5413 10.2627 23.1787C9.8919 23.0789 9.55414 22.8844 9.2832 22.6152C9.01221 22.3459 8.8175 22.0104 8.71875 21.6436C8.35487 20.294 8.35352 17.4851 8.35352 17.4658C8.35352 17.4658 8.35367 14.6424 8.71875 13.2881C8.8175 12.9212 9.01221 12.5857 9.2832 12.3164C9.55414 12.0472 9.89187 11.8528 10.2627 11.7529C11.6282 11.3904 17.0869 11.3906 17.0869 11.3906ZM15.8457 19.9648L19.8457 17.4648L15.8457 14.9648V19.9648Z" fill="#004C40"/>
</svg>
