<svg width="20" height="19" viewBox="0 0 20 19" fill="none" xmlns="http://www.w3.org/2000/svg">
<path d="M18.2087 5.63505C18.2235 6.049 18.571 6.37262 18.985 6.35788C19.3989 6.34314 19.7225 5.99562 19.7078 5.58167L18.9583 5.60836L18.2087 5.63505ZM13.7556 0.752866V1.50287C13.7639 1.50287 13.7723 1.50273 13.7806 1.50245L13.7556 0.752866ZM5.9528 0.752866L5.92774 1.50245C5.93609 1.50273 5.94444 1.50287 5.9528 1.50287V0.752866ZM0.000597119 5.58167C-0.0141433 5.99562 0.309481 6.34314 0.723432 6.35788C1.13738 6.37262 1.48491 6.049 1.49965 5.63505L0.750122 5.60836L0.000597119 5.58167ZM19.7083 5.6084C19.7083 5.19418 19.3725 4.8584 18.9583 4.8584C18.5441 4.8584 18.2083 5.19418 18.2083 5.6084H18.9583H19.7083ZM18.9583 12.8916L19.7078 12.9183C19.7081 12.9094 19.7083 12.9005 19.7083 12.8916H18.9583ZM13.7556 17.7471L13.7806 16.9975C13.7723 16.9973 13.7639 16.9971 13.7556 16.9971V17.7471ZM5.9528 17.7471V16.9971C5.94444 16.9971 5.93609 16.9973 5.92774 16.9975L5.9528 17.7471ZM0.750122 12.8916H0.00012207C0.00012207 12.9005 0.00028044 12.9094 0.000597119 12.9183L0.750122 12.8916ZM1.50012 5.6084C1.50012 5.19418 1.16434 4.8584 0.750122 4.8584C0.335909 4.8584 0.00012207 5.19418 0.00012207 5.6084H0.750122H1.50012ZM19.3366 6.256C19.6942 6.04707 19.8148 5.58776 19.6059 5.2301C19.3969 4.87244 18.9376 4.75187 18.58 4.9608L18.9583 5.6084L19.3366 6.256ZM12.5684 9.34106L12.1901 8.69342L12.1839 8.69714L12.5684 9.34106ZM7.13997 9.34106L7.52453 8.69711L7.51827 8.69345L7.13997 9.34106ZM1.12842 4.9608C0.770761 4.75187 0.311449 4.87244 0.10252 5.2301C-0.10641 5.58776 0.014161 6.04707 0.371822 6.256L0.750122 5.6084L1.12842 4.9608ZM18.9583 5.60836L19.7078 5.58167C19.5942 2.39223 16.9202 -0.103325 13.7305 0.00328428L13.7556 0.752866L13.7806 1.50245C16.1436 1.42347 18.1246 3.27224 18.2087 5.63505L18.9583 5.60836ZM13.7556 0.752866V0.00286573H5.9528V0.752866V1.50287H13.7556V0.752866ZM5.9528 0.752866L5.97785 0.00328428C2.78817 -0.103325 0.11417 2.39223 0.000597119 5.58167L0.750122 5.60836L1.49965 5.63505C1.58378 3.27224 3.56475 1.42347 5.92774 1.50245L5.9528 0.752866ZM18.9583 5.6084H18.2083V12.8916H18.9583H19.7083V5.6084H18.9583ZM18.9583 12.8916L18.2087 12.8649C18.1246 15.2277 16.1436 17.0765 13.7806 16.9975L13.7556 17.7471L13.7305 18.4967C16.9202 18.6033 19.5942 16.1078 19.7078 12.9183L18.9583 12.8916ZM13.7556 17.7471V16.9971H5.9528V17.7471V18.4971H13.7556V17.7471ZM5.9528 17.7471L5.92774 16.9975C3.56475 17.0765 1.58378 15.2277 1.49965 12.8649L0.750122 12.8916L0.000597119 12.9183C0.11417 16.1078 2.78817 18.6033 5.97785 18.4967L5.9528 17.7471ZM0.750122 12.8916H1.50012V5.6084H0.750122H0.00012207V12.8916H0.750122ZM18.9583 5.6084L18.58 4.9608L12.1901 8.69345L12.5684 9.34106L12.9467 9.98866L19.3366 6.256L18.9583 5.6084ZM12.5684 9.34106L12.1839 8.69714C10.749 9.55407 8.95943 9.55407 7.52451 8.69714L7.13997 9.34106L6.75542 9.98497C8.66405 11.1248 11.0443 11.1248 12.953 9.98497L12.5684 9.34106ZM7.13997 9.34106L7.51827 8.69345L1.12842 4.9608L0.750122 5.6084L0.371822 6.256L6.76167 9.98866L7.13997 9.34106Z" fill="white"/>
</svg>
