<svg width="35" height="35" viewBox="0 0 35 35" fill="none" xmlns="http://www.w3.org/2000/svg">
<circle cx="17.0862" cy="17.0862" r="17.0862" fill="white"/>
<path d="M20.7656 14.5723V20.8125C20.7656 23.8696 18.3978 26.3291 15.5 26.3291C14.856 26.3291 14.2388 26.2073 13.668 25.9854C13.9799 26.0399 14.3002 26.0693 14.627 26.0693C17.8214 26.0693 20.3925 23.3656 20.3926 20.0537V14.293L20.7656 14.5723ZM15.6338 15.2988C15.7583 15.3021 15.8828 15.3098 16.0068 15.3223V17.9678C15.8371 17.9345 15.6644 17.916 15.4912 17.916C13.9495 17.9163 12.7188 19.2199 12.7188 20.8037L12.7275 21.0381C12.7387 21.1826 12.7613 21.3254 12.793 21.4658C12.5127 21.0695 12.3457 20.578 12.3457 20.0439C12.3459 18.7151 13.3733 17.6573 14.6182 17.6572C14.851 17.657 15.0833 17.6939 15.3057 17.7676L15.6338 17.877V15.2988ZM24.5508 12.9219C24.6749 12.9401 24.7996 12.9536 24.9248 12.9609V15.583C24.2249 15.557 23.552 15.4208 22.9199 15.1924C23.3674 15.2805 23.8287 15.3291 24.3008 15.3291H24.5508V12.9219ZM20.4414 14.1973H20.3926V14.1641C20.4091 14.1748 20.4248 14.1867 20.4414 14.1973ZM20.7656 8.60352V8.76562L20.7666 8.77637C20.796 9.11391 20.8636 9.44017 20.959 9.75293C20.752 9.40155 20.5941 9.01509 20.4951 8.60352H20.7656Z" fill="#D9D9D9" stroke="#004C40" stroke-width="0.5"/>
<path d="M20.1443 13.6877C21.3166 14.5634 22.7521 15.0787 24.3027 15.0787V12.6233C23.4372 12.4306 22.671 11.9578 22.0949 11.3001C21.1088 10.6569 20.3983 9.59562 20.19 8.35352H18.0162V20.8127C18.0112 22.2652 16.8837 23.4413 15.4931 23.4413C14.6737 23.4413 13.9457 23.033 13.4847 22.4005C12.6614 21.9661 12.0969 21.0743 12.0969 20.0445C12.0969 18.588 13.2263 17.407 14.6198 17.407C14.8868 17.407 15.1442 17.4505 15.3855 17.5306V15.0483C12.393 15.113 9.98627 17.6691 9.98627 20.8128C9.98627 22.3821 10.5856 23.8047 11.5583 24.8442C12.4359 25.4602 13.4922 25.8194 14.6288 25.8194C17.6749 25.8194 20.1443 23.238 20.1443 20.0535V13.6877H20.1443Z" fill="#004C40"/>
<path d="M19.8926 7.84375V8.00586L19.8936 8.0166C19.8961 8.04556 19.9012 8.07461 19.9043 8.10352H17.7646V20.8125C17.7597 22.1374 16.7332 23.1904 15.4912 23.1904C15.1174 23.1904 14.7642 23.0956 14.4521 22.9268C14.5071 22.9301 14.5624 22.9316 14.6182 22.9316C16.1569 22.9316 17.3854 21.6331 17.3906 20.0537V7.84375H19.8926ZM14.627 14.5371C14.7962 14.537 14.9654 14.5486 15.1338 14.5654V14.8086C12.111 15.0061 9.73438 17.6283 9.73438 20.8125C9.73439 21.5006 9.84571 22.162 10.0498 22.7783C9.61281 21.9748 9.36133 21.0451 9.36133 20.0527C9.36151 16.9963 11.7292 14.5372 14.627 14.5371ZM23.7031 12.167C23.8183 12.1833 23.9343 12.1935 24.0508 12.2002V12.2969C23.9326 12.2599 23.8171 12.2153 23.7031 12.167Z" fill="white" stroke="#004C40" stroke-width="0.5"/>
</svg>
