<svg width="179" height="212" viewBox="0 0 179 212" fill="none" xmlns="http://www.w3.org/2000/svg">
<g clip-path="url(#clip0_26_286)">
<path d="M139.89 196.523C139.89 192.933 139.89 189.344 139.89 185.756C139.89 184.727 140.036 184.567 141.064 184.566C145.09 184.56 149.119 184.65 153.141 184.527C155.299 184.461 156.658 186.023 157.416 187.881C157.624 188.39 157.668 188.935 157.668 189.489C157.66 195.341 157.663 201.193 157.663 207.045C157.663 208.073 157.272 208.477 156.195 208.496C155.02 208.516 153.843 208.503 152.666 208.499C151.78 208.494 151.559 208.274 151.558 207.387C151.554 204.371 151.558 201.352 151.558 198.336C151.558 196.098 151.54 193.862 151.569 191.625C151.576 191.007 151.375 190.816 150.756 190.836C149.423 190.882 148.087 190.897 146.756 190.836C146.035 190.804 145.878 191.072 145.881 191.723C145.901 196.17 145.892 200.619 145.892 205.067C145.892 205.77 145.892 206.472 145.892 207.173C145.892 208.065 145.523 208.475 144.62 208.494C143.366 208.521 142.111 208.494 140.855 208.503C140.177 208.51 139.876 208.238 139.881 207.523C139.904 203.855 139.892 200.188 139.892 196.521L139.89 196.523Z" fill="white"/>
<path d="M39.4945 196.56C39.4945 192.944 39.493 189.328 39.4945 185.712C39.4945 184.759 39.6813 184.564 40.634 184.564C44.7649 184.561 48.8973 184.556 53.0282 184.567C54.9587 184.572 56.6396 186.126 56.7542 188.052C56.8232 189.219 56.7856 190.393 56.7871 191.562C56.7903 196.765 56.7903 201.967 56.7871 207.17C56.7871 208.374 56.6506 208.5 55.4217 208.502C54.4015 208.502 53.3814 208.503 52.3628 208.502C51.3551 208.499 51.1715 208.324 51.1715 207.323C51.1699 202.406 51.1715 197.489 51.1731 192.573C51.1731 192.26 51.1637 191.948 51.1762 191.636C51.2013 191.049 50.9706 190.818 50.3428 190.838C48.9067 190.883 47.466 190.894 46.0299 190.836C45.2797 190.807 45.0992 191.078 45.1023 191.775C45.1243 196.951 45.1149 202.128 45.1133 207.304C45.1133 208.402 45.0113 208.5 43.9017 208.502C42.8297 208.503 41.7577 208.505 40.6858 208.502C39.6672 208.499 39.4977 208.333 39.4961 207.329C39.4945 203.74 39.4961 200.15 39.4945 196.559V196.56Z" fill="white"/>
<path d="M5.08669 199.479C5.08669 196.853 5.07257 194.226 5.09768 191.6C5.10396 191.022 4.92817 190.818 4.33805 190.841C3.26766 190.882 2.1957 190.863 1.12374 190.854C0.295048 190.846 0.0156797 190.593 0.00626281 189.803C-0.00943206 188.373 0.00940178 186.943 -0.00158463 185.512C-0.00629309 184.874 0.251103 184.56 0.927552 184.563C5.5544 184.576 10.1812 184.574 14.8065 184.571C15.494 184.571 15.8 184.883 15.7906 185.572C15.7733 186.975 15.7953 188.381 15.7843 189.784C15.778 190.595 15.5206 190.844 14.6998 190.852C13.6545 190.863 12.6061 190.901 11.564 190.838C10.8734 190.796 10.7023 191.09 10.7055 191.691C10.7164 194.005 10.7086 196.32 10.7086 198.634C10.7086 201.521 10.7086 204.407 10.7086 207.294C10.7086 208.33 10.5297 208.505 9.47184 208.507C8.39988 208.508 7.32792 208.513 6.25753 208.507C5.32996 208.501 5.0914 208.274 5.08826 207.364C5.08198 204.738 5.08512 202.111 5.08512 199.485H5.08198L5.08669 199.479Z" fill="white"/>
<path d="M102.725 196.563C102.725 192.922 102.725 189.283 102.725 185.643C102.725 184.756 102.883 184.583 103.757 184.574C104.986 184.561 106.215 184.588 107.442 184.566C108.076 184.555 108.348 184.865 108.383 185.446C108.403 185.784 108.4 186.122 108.4 186.46C108.4 191.375 108.4 196.289 108.4 201.204C108.4 202.214 108.4 202.219 109.439 202.22C111.478 202.225 113.516 202.236 115.555 202.217C116.277 202.211 116.647 202.436 116.699 203.23C116.795 204.687 116.731 206.141 116.748 207.595C116.754 208.199 116.385 208.499 115.806 208.5C111.729 208.508 107.651 208.505 103.574 208.503C102.885 208.503 102.714 208.104 102.717 207.487C102.731 203.847 102.723 200.206 102.725 196.566V196.563Z" fill="white"/>
<path d="M178.992 189.456C178.992 186.702 176.872 184.564 174.136 184.563C170.216 184.561 166.295 184.563 162.374 184.563C161.13 184.563 160.943 184.747 160.941 186.023C160.94 189.506 160.941 192.991 160.941 196.474H160.938C160.938 197.956 160.938 199.438 160.938 200.921C160.938 203.028 160.93 205.134 160.943 207.24C160.949 208.197 161.21 208.497 162.031 208.499C166.317 208.507 170.611 208.66 174.886 208.442C177.35 208.316 178.967 207.368 178.986 204.278C179.014 199.338 178.994 194.398 178.994 189.458L178.992 189.456ZM172.611 201.647C172.612 202.081 172.498 202.239 172.041 202.231C170.603 202.206 169.166 202.203 167.728 202.234C167.243 202.245 167.174 202.035 167.177 201.632C167.191 199.941 167.183 198.251 167.183 196.56C167.183 194.869 167.204 193.18 167.171 191.489C167.161 190.969 167.321 190.83 167.83 190.843C169.214 190.875 170.602 190.872 171.986 190.846C172.438 190.836 172.62 190.914 172.617 191.428C172.592 194.835 172.595 198.242 172.609 201.649L172.611 201.647Z" fill="white"/>
<path d="M77.9046 188.604C77.9015 186.485 76.4293 184.427 73.6764 184.527C69.7621 184.669 65.8384 184.563 61.9178 184.566C60.7093 184.566 60.5508 184.725 60.5508 185.91C60.5508 189.445 60.5508 192.982 60.5508 196.517C60.5508 200.078 60.5508 203.64 60.5524 207.201C60.5524 208.271 60.7768 208.502 61.8142 208.502C65.9687 208.505 70.1247 208.507 74.2791 208.499C76.0871 208.496 77.7963 206.883 77.8512 205.054C78.0129 199.571 77.914 194.086 77.903 188.602L77.9046 188.604ZM72.2592 201.546C72.2639 202.111 72.0755 202.244 71.545 202.235C70.0289 202.205 68.5112 202.202 66.9951 202.235C66.4615 202.246 66.2794 202.111 66.292 201.549C66.3312 199.885 66.3061 198.219 66.3061 196.554H66.303C66.303 194.89 66.3343 193.222 66.2873 191.559C66.27 190.952 66.4646 190.827 67.0343 190.843C68.5505 190.882 70.0682 190.874 71.5843 190.846C72.0755 190.836 72.2639 190.944 72.2607 191.48C72.2372 194.837 72.234 198.192 72.2607 201.549L72.2592 201.546Z" fill="white"/>
<path d="M136.167 188.066C135.574 185.67 134.186 184.571 131.724 184.564C128.743 184.558 125.761 184.563 122.781 184.563C120.403 184.563 118.752 186.204 118.752 188.561C118.754 191.658 118.752 194.752 118.752 197.849C118.752 200.996 118.752 204.144 118.752 207.292C118.752 208.344 118.912 208.5 119.987 208.503C121.059 208.507 122.131 208.507 123.203 208.503C124.336 208.499 124.578 208.261 124.583 207.122C124.589 205.431 124.597 203.74 124.583 202.049C124.578 201.527 124.746 201.323 125.308 201.337C126.745 201.376 128.185 201.388 129.621 201.33C130.28 201.304 130.385 201.544 130.374 202.12C130.34 203.863 130.357 205.605 130.363 207.35C130.365 207.937 130.5 208.48 131.231 208.492C132.564 208.517 133.899 208.521 135.232 208.489C136.029 208.471 136.319 208.119 136.319 207.321C136.319 201.365 136.319 195.407 136.326 189.45C136.326 188.978 136.277 188.519 136.164 188.065L136.167 188.066ZM130.371 195.149C130.376 195.502 130.241 195.586 129.913 195.578C129.103 195.56 128.291 195.572 127.482 195.572C126.723 195.572 125.964 195.549 125.207 195.58C124.755 195.599 124.559 195.51 124.575 194.993C124.614 193.667 124.6 192.34 124.578 191.013C124.572 190.622 124.666 190.449 125.093 190.454C126.687 190.469 128.282 190.468 129.878 190.451C130.249 190.446 130.379 190.557 130.374 190.938C130.355 192.342 130.357 193.747 130.374 195.152L130.371 195.149Z" fill="white"/>
<path d="M35.7058 188.572C35.6854 186.394 34.0877 184.433 31.5781 184.535C28.4721 184.659 25.3566 184.564 22.2459 184.566C20.124 184.567 18.4446 186.105 18.4022 188.244C18.3395 191.414 18.3866 194.587 18.3866 197.758C18.3693 197.758 18.3505 197.758 18.3332 197.758C18.3332 200.957 18.3332 204.155 18.3332 207.354C18.3332 208.249 18.5843 208.499 19.5009 208.503C20.5728 208.508 21.6448 208.505 22.7168 208.503C23.8546 208.503 23.9928 208.368 23.9943 207.262C23.9943 205.571 24.0304 203.88 23.9802 202.191C23.9582 201.482 24.1968 201.31 24.8732 201.333C26.3093 201.383 27.7501 201.387 29.1862 201.329C29.8438 201.302 29.9505 201.543 29.938 202.119C29.9035 203.861 29.916 205.604 29.9301 207.346C29.9364 208.152 30.2801 208.492 31.0602 208.5C32.2624 208.511 33.4646 208.497 34.6684 208.505C35.3888 208.51 35.731 208.14 35.731 207.453C35.7341 201.159 35.7671 194.865 35.7074 188.571L35.7058 188.572ZM29.9333 195.105C29.9395 195.494 29.7999 195.586 29.4357 195.575C28.6275 195.552 27.8176 195.567 27.0077 195.567C26.1979 195.567 25.388 195.549 24.5798 195.575C24.1591 195.588 23.9724 195.491 23.9833 195.019C24.0147 193.695 24.0085 192.37 23.9881 191.046C23.9818 190.629 24.0744 190.441 24.5437 190.447C26.1618 190.471 27.7815 190.468 29.4012 190.449C29.8046 190.444 29.9443 190.558 29.9364 190.974C29.9129 192.351 29.9129 193.728 29.9333 195.104V195.105Z" fill="white"/>
<path d="M98.9561 196.556C98.9561 193.903 98.9546 191.252 98.9577 188.599C98.9608 186.7 97.4604 184.432 94.9508 184.535C91.9233 184.658 88.8832 184.677 85.8572 184.532C83.1137 184.399 81.5866 186.571 81.5913 188.838C81.6023 193.856 81.5945 198.875 81.6039 203.893C81.6039 204.333 81.6353 204.777 81.7012 205.212C81.9806 207.052 83.4731 208.586 85.5794 208.529C88.8172 208.44 92.0614 208.497 95.3024 208.51C96.0683 208.513 96.7573 208.307 97.3396 207.837C98.3927 206.987 98.9357 205.857 98.9467 204.513C98.9687 201.86 98.953 199.209 98.9546 196.556H98.9561ZM93.3028 201.621C93.306 202.11 93.1522 202.239 92.6782 202.232C91.0851 202.205 89.4906 202.2 87.896 202.232C87.3576 202.242 87.2478 202.041 87.2556 201.549C87.2839 199.886 87.2666 198.222 87.2666 196.557H87.2791C87.2791 194.868 87.298 193.177 87.2682 191.488C87.2587 190.972 87.4157 190.827 87.9258 190.838C89.4937 190.869 91.0616 190.869 92.6295 190.841C93.1271 190.832 93.3091 190.946 93.3044 191.481C93.2809 194.86 93.2824 198.241 93.3044 201.619L93.3028 201.621Z" fill="white"/>
<path d="M71.1402 28.0503L94.4345 60.5505V71.1882L101.96 71.0258L109.987 82.1351H94.4235V118.005H71.0523V82.2256H59.7143V71.1882H71.0287L71.1402 28.0503Z" fill="white"/>
<path d="M109.987 82.1348L111.763 84.5783L97.5358 84.8047V117.979H94.4235V82.1348H109.987Z" fill="white"/>
<path d="M94.4345 60.5503L97.5358 64.9175V71.138H94.4345V60.5503Z" fill="white"/>
<path d="M59.7143 82.2256H71.0523L71.0334 84.7691H65.1447L59.7143 82.2256Z" fill="white"/>
<path d="M71.0366 0L133.174 86.8036V129.037H46.1304V117.928H114.891V117.536V82.1787L71.0523 21.2411L71.0366 0Z" fill="white"/>
<path d="M132.904 136.651L145.531 147.748H122.982V166.036H166.107L178.493 177.02H0.812988L12.9169 166.153H56.1531V147.801H33.6624L45.8604 136.651H67.2651V166.174H96.9849V162.504H71.0507V136.651H108.332V147.587H81.8644V151.618H108.146V166.108H111.969V136.54L132.904 136.651Z" fill="white"/>
</g>
<defs>
<clipPath id="clip0_26_286">
<rect width="179" height="212" fill="white"/>
</clipPath>
</defs>
</svg>
