<svg width="35" height="35" viewBox="0 0 35 35" fill="none" xmlns="http://www.w3.org/2000/svg">
<circle cx="17.0862" cy="17.0862" r="17.0862" fill="white"/>
<path d="M10.7471 24.4374C10.6649 24.4007 10.6056 24.3595 10.7015 24.277C10.7608 24.2313 10.8247 24.19 10.8886 24.1488C11.4864 23.7594 12.0478 23.3334 12.4174 22.7058C12.7276 22.1836 12.6775 21.8766 12.2896 21.4919C10.1264 19.3205 9.17722 16.7232 9.65182 13.654C9.92104 11.9225 10.7106 10.4245 11.8606 9.12358C12.5543 8.33564 13.3803 7.69896 14.2839 7.1676C14.3387 7.13556 14.4163 7.12637 14.4254 7.0439C14.4071 6.99812 14.3751 7.01186 14.3478 7.01186C12.8098 7.01186 11.2718 6.97982 9.73851 7.02105C8.26901 7.06684 7.00036 8.20739 7.00489 9.84281C7.01405 14.6206 7.00489 19.3985 7.00489 24.1808C7.00489 25.6651 8.13209 26.9065 9.60612 26.9614C10.852 27.0119 12.0979 26.9706 13.3483 26.966C13.4396 26.9705 13.5309 26.9752 13.6222 26.9752H20.212C21.8549 26.9752 23.4979 26.9844 25.1407 26.9752C26.665 26.9752 27.9017 25.7383 27.9017 24.213V21.5057C27.9017 21.4415 27.9246 21.3728 27.8835 21.3042C27.8014 21.3087 27.7694 21.3775 27.7237 21.4233C26.8384 22.3166 25.7933 23.0358 24.6478 23.5442C21.8412 24.7856 18.9844 24.8727 16.0865 23.8741C15.8355 23.7824 15.5616 23.7733 15.3015 23.8374C14.9181 23.9336 14.5394 24.0481 14.1606 24.1626C13.0471 24.5108 11.9107 24.6665 10.747 24.4375L10.7471 24.4374ZM14.0557 16.7187C14.1333 16.6179 14.1744 16.5583 14.22 16.4988C14.8178 15.7383 15.4156 14.978 16.0135 14.213C16.1869 13.9931 16.3603 13.7686 16.4698 13.5029C16.5976 13.2006 16.4607 12.9166 16.1504 12.8066C16.0135 12.7654 15.8675 12.7471 15.7214 12.7562C14.909 12.7517 14.0922 12.7517 13.2799 12.7562C13.1658 12.7562 13.0517 12.77 12.9422 12.7974C12.6867 12.8616 12.5314 13.1227 12.5953 13.3838C12.641 13.5579 12.7779 13.6953 12.9513 13.7365C13.0609 13.764 13.1749 13.7777 13.289 13.7732C13.7819 13.7777 14.2793 13.7732 14.7722 13.7777C14.827 13.7777 14.8954 13.741 14.9365 13.8235C14.8954 13.8785 14.8544 13.9334 14.8133 13.9839C14.1059 14.8817 13.4031 15.7841 12.6957 16.682C12.5223 16.9065 12.431 17.1539 12.5588 17.4287C12.6866 17.7036 12.9467 17.7539 13.2114 17.7723C13.4213 17.7861 13.6359 17.7769 13.8503 17.7769C14.5896 17.7769 15.3243 17.7814 16.0637 17.7723C16.4562 17.7678 16.6661 17.5296 16.625 17.163C16.5931 16.8744 16.3969 16.7232 16.0317 16.7187C15.3883 16.7141 14.7447 16.7187 14.0557 16.7187ZM19.3495 14.3092C18.7791 13.8098 18.1493 13.7778 17.5332 14.1442C16.7848 14.584 16.5109 15.3032 16.6022 16.1369C16.6889 16.9157 17.0267 17.5524 17.839 17.8135C18.3456 17.9784 18.8155 17.9189 19.2308 17.5798C19.3404 17.4928 19.3723 17.5111 19.4499 17.6073C19.6005 17.7997 19.8607 17.873 20.0888 17.786C20.317 17.7173 20.4676 17.5066 20.4676 17.2684C20.4721 16.3522 20.4767 15.436 20.4676 14.5199C20.463 14.1534 20.1207 13.9198 19.7647 13.9931C19.5685 14.0343 19.459 14.1672 19.3495 14.3092H19.3495ZM22.5121 16.0087C22.4939 17.1539 23.4386 18.0196 24.6251 17.9006C25.7158 17.7906 26.4232 16.9706 26.3866 15.8117C26.3501 14.6665 25.5013 13.8832 24.3375 13.9198C23.2468 13.9518 22.4756 14.8313 22.5121 16.0087H22.5121ZM22.1105 15.097C22.1105 14.3778 22.1151 13.6632 22.1105 12.944C22.1105 12.5775 21.8778 12.3485 21.5309 12.3531C21.1932 12.3576 20.9696 12.5867 20.965 12.9394C20.9605 13.1547 20.965 13.3655 20.965 13.5807V17.2225C20.965 17.5065 21.1384 17.7539 21.3666 17.8134C21.6815 17.9004 22.0055 17.7126 22.0877 17.3965C22.1014 17.3415 22.1105 17.2866 22.1059 17.227C22.1151 16.517 22.1104 15.807 22.1104 15.0969L22.1105 15.097Z" fill="#FDFEFE"/>
<path d="M13.3434 26.9703C12.0975 26.9703 10.8471 27.0115 9.60123 26.9658C8.1272 26.9062 7 25.6648 7 24.1852C7 19.4073 7.00916 14.6295 7 9.84713C7 8.21171 8.27327 7.07107 9.73815 7.02984C11.2716 6.98861 12.8094 7.02065 14.3474 7.02065C14.3748 7.02065 14.4113 7.00691 14.425 7.05269C14.4159 7.13515 14.3337 7.14435 14.2836 7.17639C13.38 7.70775 12.5539 8.34451 11.8602 9.13237C10.7147 10.4333 9.92068 11.9267 9.65146 13.6628C9.17686 16.7274 10.1307 19.3293 12.2892 21.5007C12.6726 21.89 12.7228 22.1924 12.417 22.7146C12.0473 23.3422 11.486 23.7682 10.8882 24.1576C10.8243 24.1943 10.7604 24.24 10.6965 24.2813C10.6007 24.3637 10.66 24.405 10.7421 24.4416C10.7603 24.4829 10.7832 24.5196 10.8106 24.5561C11.3354 25.0234 11.8329 25.5227 12.3485 25.9991C12.5904 26.2236 12.8323 26.4572 13.0651 26.6909C13.1609 26.7779 13.3206 26.8054 13.3434 26.9703Z" fill="#004C40"/>
<path d="M13.3435 26.9698C13.3207 26.8095 13.161 26.7821 13.0651 26.6859C12.8324 26.4477 12.5905 26.2186 12.3486 25.9941C11.8329 25.5177 11.3355 25.0184 10.8106 24.5511C10.7833 24.5144 10.7604 24.4778 10.7422 24.4366C11.9059 24.6656 13.0423 24.5099 14.1603 24.1664C14.5391 24.0519 14.9179 23.9374 15.3012 23.8412C15.5614 23.7724 15.8351 23.7862 16.0862 23.8778C18.9796 24.8765 21.8363 24.7848 24.6475 23.548C25.7931 23.0395 26.8381 22.3249 27.7235 21.4316C27.7691 21.3859 27.8011 21.3171 27.8832 21.3125C27.9243 21.3767 27.9015 21.4454 27.9015 21.514V24.1938C27.9106 25.7238 26.6876 26.9698 25.1633 26.9835H25.1405C23.4976 26.9927 21.8546 26.9835 20.2118 26.9835H13.6173C13.526 26.9743 13.4348 26.9698 13.3435 26.9698V26.9698Z" fill="#004C40"/>
<path d="M14.0551 16.7192C14.7442 16.7192 15.3922 16.7146 16.0357 16.7192C16.3962 16.7237 16.5925 16.8749 16.629 17.1635C16.6701 17.5254 16.4602 17.7681 16.0677 17.7728C15.3284 17.782 14.5937 17.7773 13.8543 17.7773C13.6399 17.7773 13.4299 17.7865 13.2154 17.7728C12.9507 17.759 12.6906 17.7041 12.5628 17.4292C12.435 17.1543 12.5263 16.907 12.6997 16.6825C13.4026 15.7847 14.1099 14.8822 14.8173 13.9843C14.8584 13.9294 14.8994 13.8744 14.9405 13.824C14.8949 13.7461 14.831 13.7827 14.7762 13.7782C14.2833 13.7736 13.7859 13.7782 13.293 13.7736C13.1789 13.7736 13.0649 13.7599 12.9553 13.7369C12.6952 13.6774 12.5355 13.4163 12.5948 13.1598C12.6359 12.9857 12.7728 12.8437 12.9462 12.8025C13.0557 12.775 13.1698 12.7612 13.2839 12.7612C14.0962 12.7567 14.913 12.7567 15.7254 12.7612C15.8715 12.7567 16.0129 12.775 16.1544 12.8116C16.4647 12.917 16.5971 13.2056 16.4738 13.5079C16.3643 13.7691 16.1909 13.9935 16.0175 14.218C15.4196 14.983 14.8218 15.7434 14.224 16.4993C14.1738 16.5588 14.1281 16.6184 14.0551 16.7192H14.0551Z" fill="#004C40"/>
<path d="M19.3491 14.3089C19.4586 14.1669 19.5727 14.034 19.7598 13.9975C20.1204 13.9242 20.458 14.1578 20.4627 14.5243C20.4764 15.4405 20.4718 16.3566 20.4627 17.2727C20.4627 17.5109 20.3075 17.7217 20.0839 17.7904C19.8558 17.8774 19.5956 17.8087 19.445 17.6117C19.3674 17.5155 19.3355 17.4972 19.2259 17.5842C18.8106 17.9232 18.3406 17.9828 17.834 17.8179C17.0217 17.5522 16.6885 16.9154 16.5973 16.1413C16.5015 15.303 16.7798 14.5884 17.5283 14.1486C18.149 13.7776 18.7787 13.8097 19.3492 14.309L19.3491 14.3089ZM17.7336 15.9809C17.7427 16.1824 17.8066 16.3749 17.9253 16.5352C18.1717 16.8651 18.6418 16.9338 18.9749 16.6864C19.0297 16.6452 19.0799 16.5948 19.1255 16.5352C19.3811 16.1871 19.3811 15.6145 19.1255 15.2663C18.9978 15.0877 18.7969 14.9824 18.5825 14.9777C18.0805 14.9457 17.729 15.3351 17.7337 15.9809H17.7336ZM22.5117 16.0084C22.4751 14.8311 23.2464 13.9516 24.3417 13.9195C25.5054 13.8829 26.3543 14.6663 26.3908 15.8115C26.4273 16.9704 25.72 17.7904 24.6292 17.9003C23.4381 18.0195 22.4934 17.1536 22.5117 16.0084ZM23.6572 15.8985C23.648 16.1275 23.7165 16.352 23.8534 16.5398C24.1044 16.8696 24.5745 16.9337 24.9031 16.6772C24.9533 16.6405 24.9944 16.5948 25.0355 16.549C25.3001 16.2008 25.3001 15.6145 25.04 15.2663C24.9122 15.0922 24.7114 14.9824 24.4969 14.9777C24.004 14.9502 23.6572 15.3259 23.6572 15.8985ZM22.1101 15.0968C22.1101 15.8068 22.1146 16.5168 22.1101 17.2269C22.1146 17.5521 21.8591 17.8224 21.5351 17.8315C21.4803 17.8315 21.421 17.827 21.3662 17.8132C21.1381 17.7537 20.9646 17.5109 20.9646 17.2223V13.5806C20.9646 13.3653 20.9601 13.1545 20.9646 12.9393C20.9692 12.5866 21.1928 12.3575 21.5306 12.3575C21.8774 12.3529 22.1102 12.5819 22.1102 12.9484C22.1147 13.663 22.1102 14.3822 22.1102 15.0968H22.1101Z" fill="#004C40"/>
<path d="M17.7334 15.9808C17.7289 15.3349 18.0803 14.9456 18.5777 14.973C18.7922 14.9822 18.993 15.0875 19.1208 15.2662C19.3763 15.6098 19.3763 16.187 19.1208 16.5351C18.8743 16.8649 18.4043 16.9337 18.0711 16.6863C18.0164 16.6451 17.9661 16.5946 17.9205 16.5351C17.8064 16.3747 17.7425 16.1824 17.7334 15.9808ZM23.657 15.8983C23.657 15.3303 24.0039 14.9501 24.4968 14.9776C24.7112 14.9822 24.9121 15.0921 25.0398 15.2662C25.3 15.6144 25.3 16.2053 25.0353 16.5488C24.7798 16.8741 24.3051 16.929 23.9811 16.6725C23.9309 16.6359 23.8898 16.5901 23.8533 16.5397C23.7164 16.3519 23.6526 16.1273 23.6571 15.8983H23.657Z" fill="#FDFEFE"/>
<path d="M9.98884 7.03516H24.9621C26.6004 7.03516 27.9285 8.36821 27.9285 10.0127V23.8927C27.9285 25.5373 26.6004 26.8703 24.9621 26.8703H9.98884C8.3505 26.8703 7.02246 25.5373 7.02246 23.8927V10.0127C7.02254 8.36821 8.3505 7.03516 9.98884 7.03516Z" stroke="#004C40" stroke-miterlimit="54.33"/>
</svg>
