<svg width="20" height="20" viewBox="0 0 20 20" fill="none" xmlns="http://www.w3.org/2000/svg">
<path fill-rule="evenodd" clip-rule="evenodd" d="M1.70139 4.82076C2.67034 3.79911 3.01346 3.51254 3.42597 3.38018C3.71189 3.30497 4.01183 3.30056 4.29983 3.36732C4.67893 3.47784 4.77788 3.56137 6.02185 4.79891C7.11417 5.88609 7.22212 6.00432 7.3275 6.2125C7.53133 6.58721 7.5641 7.03149 7.41745 7.43205C7.30951 7.73404 7.15016 7.93452 6.48834 8.60019L6.05655 9.03326C5.94295 9.1485 5.91602 9.32357 5.98972 9.46762C6.94824 11.103 8.30783 12.467 9.94008 13.4308C10.1283 13.5317 10.3603 13.499 10.5132 13.3499L10.9283 12.9412C11.1848 12.678 11.4564 12.43 11.7418 12.1984C12.1892 11.9215 12.7478 11.8948 13.2196 12.1277C13.4497 12.2357 13.5268 12.3064 14.6538 13.4295C15.8104 14.5861 15.8476 14.6234 15.9774 14.8894C16.2198 15.33 16.2173 15.8646 15.971 16.303C15.8425 16.5497 15.7705 16.6397 15.1177 17.3066C14.7232 17.7102 14.3466 18.0777 14.2927 18.1317C13.7535 18.5773 13.0624 18.7961 12.365 18.7421C11.0892 18.6253 9.85445 18.2305 8.74752 17.5855C6.29408 16.2856 4.20557 14.3915 2.67291 12.0763C2.33775 11.5923 2.03962 11.0837 1.78106 10.5548C1.09214 9.37378 0.735978 8.0282 0.750422 6.661C0.802243 5.9433 1.14594 5.2782 1.70139 4.82076Z" stroke="white" stroke-width="1.5" stroke-linecap="round" stroke-linejoin="round"/>
<path d="M12.683 0.0440909C12.2932 -0.0958371 11.8637 0.106775 11.7238 0.496638C11.5839 0.886501 11.7865 1.31598 12.1763 1.45591L12.4297 0.75L12.683 0.0440909ZM18.0251 7.20678C18.1716 7.59422 18.6044 7.78956 18.9919 7.64307C19.3793 7.49658 19.5746 7.06375 19.4281 6.6763L18.7266 6.94154L18.0251 7.20678ZM11.1808 2.91393C10.7768 2.82268 10.3753 3.07625 10.284 3.48029C10.1928 3.88433 10.4464 4.28583 10.8504 4.37708L11.0156 3.64551L11.1808 2.91393ZM15.1831 8.63811C15.2811 9.04058 15.6867 9.28741 16.0892 9.18944C16.4917 9.09147 16.7385 8.68579 16.6405 8.28333L15.9118 8.46072L15.1831 8.63811ZM12.4297 0.75L12.1763 1.45591C14.8739 2.4241 17.0115 4.52596 18.0251 7.20678L18.7266 6.94154L19.4281 6.6763C18.2592 3.58464 15.794 1.16066 12.683 0.0440909L12.4297 0.75ZM11.0156 3.64551L10.8504 4.37708C12.9866 4.85952 14.6651 6.5103 15.1831 8.63811L15.9118 8.46072L16.6405 8.28333C15.9878 5.60204 13.8726 3.52185 11.1808 2.91393L11.0156 3.64551Z" fill="white"/>
</svg>
